<svg version="1.1" id="Layer_1" xmlns="http://www.w3.org/2000/svg" xmlns:xlink="http://www.w3.org/1999/xlink" x="0px" y="0px"
	 width="100%" viewBox="0 0 200 200" enable-background="new 0 0 200 200" xml:space="preserve">
<path fill="#150F29" opacity="1.000000" stroke="none" 
	d="
M87.000000,201.000000 
	C58.000000,201.000000 29.500004,201.000000 1.000004,201.000000 
	C1.000003,134.333344 1.000003,67.666679 1.000001,1.000013 
	C67.666656,1.000009 134.333313,1.000009 200.999969,1.000004 
	C200.999985,67.666649 200.999985,134.333298 201.000000,200.999969 
	C163.166672,201.000000 125.333336,201.000000 87.000000,201.000000 
M86.320572,89.563164 
	C86.320572,89.563164 86.624390,89.782364 86.614510,90.123726 
	C86.737587,90.366638 86.930008,90.450134 87.418327,90.693626 
	C87.418327,90.693626 87.741829,90.914307 87.652283,91.155380 
	C87.652283,91.155380 87.837372,91.331436 87.837372,91.331436 
	C87.837372,91.331436 88.070259,91.225258 88.386635,91.630203 
	C88.524345,91.732079 88.662056,91.833946 88.683502,92.166290 
	C88.683502,92.166290 88.859795,92.353157 88.859795,92.353157 
	C88.859795,92.353157 89.100555,92.261795 89.367691,92.641891 
	C89.367691,92.641891 89.746948,92.910210 89.657997,93.161850 
	C89.657997,93.161850 89.846581,93.348892 89.846581,93.348892 
	C89.846581,93.348892 90.098152,93.262138 90.372307,93.641220 
	C90.372307,93.641220 90.759628,93.903603 90.666260,94.154404 
	C90.666260,94.154404 90.855385,94.341980 90.855385,94.341980 
	C90.855385,94.341980 91.106415,94.251389 91.310913,94.579575 
	C91.310913,94.579575 91.629166,94.799202 91.636185,95.143646 
	C91.636185,95.143646 91.893105,95.373360 91.893105,95.373360 
	C91.893105,95.373360 92.237473,95.354050 92.486900,95.699852 
	C92.486900,95.699852 92.840286,95.938393 92.689667,96.128044 
	C92.689667,96.128044 93.037888,96.126305 93.570068,96.783501 
	C93.983421,97.166451 94.396774,97.549408 94.643669,98.169281 
	C94.643669,98.169281 94.848976,98.370872 94.848976,98.370872 
	C94.848976,98.370872 95.085365,98.205269 95.500374,98.614563 
	C95.677757,98.693840 95.855141,98.773125 96.264603,99.494392 
	C97.416504,100.594429 98.568405,101.694458 99.719856,103.361267 
	C99.916664,103.893791 100.113480,104.426323 99.905853,105.524445 
	C93.320404,112.050644 86.734955,118.576843 80.736839,124.520996 
	C87.992775,131.778824 94.870895,138.658737 101.609528,145.399124 
	C108.099411,138.907837 114.888680,132.117081 122.451897,124.552223 
	C115.914047,118.330719 109.310501,112.046700 103.409996,105.231964 
	C114.096413,105.104057 124.783691,105.020210 135.468567,104.812584 
	C137.714569,104.768944 139.951721,104.270462 142.876068,103.982948 
	C149.436737,96.776360 155.997406,89.569771 162.353165,82.588264 
	C156.545807,76.880959 149.611862,70.066498 142.181580,62.764256 
	C135.759262,69.335770 129.062698,76.187881 121.717735,82.758705 
	C120.219078,81.806343 118.720428,80.853981 117.085007,79.422127 
	C117.085007,79.422127 116.848656,78.983078 116.848816,78.388138 
	C116.253624,77.890472 115.658440,77.392807 115.032471,76.964462 
	C115.032471,76.964462 115.108315,76.964676 114.953720,76.435013 
	C114.652145,76.245720 114.350571,76.056427 114.053734,75.947136 
	C114.053734,75.947136 114.124710,75.909912 113.845764,75.336357 
	C113.254654,75.141106 112.663551,74.945854 112.131432,74.800095 
	C112.131432,74.800095 112.142303,74.723427 112.134003,74.307396 
	C112.134003,74.307396 111.926613,73.946648 111.908829,73.422516 
	C111.630936,73.227348 111.353035,73.032188 110.947525,72.398560 
	C110.773338,72.120766 110.523575,71.961525 110.004158,71.395103 
	C109.685867,71.215668 109.367569,71.036232 109.062996,70.940392 
	C109.062996,70.940392 109.140472,70.906136 108.902451,70.279099 
	C104.526962,65.773117 100.784775,59.923717 92.050629,62.515202 
	C87.030540,62.608231 82.010445,62.701256 76.100868,62.507030 
	C70.957077,62.660179 65.813286,62.813332 60.093319,62.733833 
	C52.762913,69.482864 45.432503,76.231888 38.454178,82.656761 
	C45.797680,90.145409 52.517548,96.998093 59.493908,104.112343 
	C66.099976,97.479134 72.745438,90.806358 80.005234,84.187202 
	C81.340576,85.112541 82.675911,86.037872 84.002495,87.000954 
	C84.002495,87.000954 84.039459,86.992264 84.177475,87.466553 
	C84.365379,87.774223 84.639427,87.935585 85.251968,88.494476 
	C85.396584,88.632408 85.541191,88.770332 85.632668,89.176872 
	C85.632668,89.176872 85.840309,89.353844 85.840309,89.353844 
	C85.840309,89.353844 86.097733,89.262009 86.320572,89.563164 
z"/>
<path fill="#FBFAFB" opacity="1.000000" stroke="none" 
	d="
M102.706955,105.762695 
	C109.310501,112.046700 115.914047,118.330719 122.451897,124.552223 
	C114.888680,132.117081 108.099411,138.907837 101.609528,145.399124 
	C94.870895,138.658737 87.992775,131.778824 80.736839,124.520996 
	C86.734955,118.576843 93.320404,112.050644 100.375443,105.265335 
	C101.465668,105.258377 102.086304,105.510536 102.706955,105.762695 
z"/>
<path fill="#FAFAFD" opacity="1.000000" stroke="none" 
	d="
M122.366158,83.040009 
	C129.062698,76.187881 135.759262,69.335770 142.181580,62.764256 
	C149.611862,70.066498 156.545807,76.880959 162.353165,82.588264 
	C155.997406,89.569771 149.436737,96.776360 142.393524,103.664604 
	C139.631775,101.189171 137.352570,99.032074 135.054138,96.914726 
	C135.034897,96.954475 135.112656,96.996361 135.029846,96.723877 
	C134.636200,96.254700 134.325363,96.058014 134.013977,95.923859 
	C134.013443,95.986397 134.138504,95.984062 134.049423,95.714981 
	C133.641846,95.257973 133.323349,95.070045 133.006165,94.938553 
	C133.007492,94.994980 133.120300,94.990776 133.037811,94.718750 
	C132.643463,94.252434 132.331635,94.058144 132.027939,93.913223 
	C132.036087,93.962585 132.132935,93.937401 132.000870,93.662018 
	C131.307190,93.219551 130.745560,93.052460 130.073410,92.585556 
	C128.717773,91.155411 127.472672,90.025070 126.103958,88.590240 
	C124.656738,86.855431 123.333115,85.425125 122.120972,83.764450 
	C122.277031,83.369392 122.321602,83.204704 122.366158,83.040009 
z"/>
<path fill="#FAFAFB" opacity="1.000000" stroke="none" 
	d="
M79.390900,84.133575 
	C72.745438,90.806358 66.099976,97.479134 59.493908,104.112343 
	C52.517548,96.998093 45.797680,90.145409 38.454178,82.656761 
	C45.432503,76.231888 52.762913,69.482864 60.436592,63.155293 
	C63.860332,66.700577 66.940804,69.824409 70.173553,73.236023 
	C71.897385,74.991196 73.468941,76.458572 75.154541,78.206955 
	C75.897018,78.965172 76.525436,79.442383 77.280426,80.250359 
	C78.068314,81.765274 78.729607,82.949425 79.390900,84.133575 
z"/>
<path fill="#5277F5" opacity="1.000000" stroke="none" 
	d="
M111.926613,73.946648 
	C111.926613,73.946648 112.134003,74.307396 111.835266,74.708046 
	C107.842941,78.419281 104.138031,81.717346 100.459648,85.044746 
	C97.897102,87.362778 93.765083,88.727737 95.209541,93.605492 
	C95.263466,93.787613 93.427673,94.529327 92.266953,94.936409 
	C92.061394,94.862556 91.629166,94.799202 91.629166,94.799202 
	C91.629166,94.799202 91.310913,94.579575 91.180954,94.333084 
	C91.050995,94.086594 90.759628,93.903603 90.759628,93.903603 
	C90.759628,93.903603 90.372307,93.641220 90.207489,93.368011 
	C90.042671,93.094810 89.746948,92.910210 89.746948,92.910210 
	C89.746948,92.910210 89.367691,92.641891 89.213989,92.375244 
	C89.060287,92.108589 88.799759,91.935822 88.799759,91.935822 
	C88.662056,91.833946 88.524345,91.732079 88.203018,91.351204 
	C88.019409,91.072205 87.741829,90.914307 87.741829,90.914307 
	C87.741829,90.914307 87.418327,90.693626 87.270798,90.326004 
	C87.123260,89.958389 86.993179,89.555428 87.070190,89.240005 
	C90.549011,85.621834 93.991745,82.359909 97.340324,79.004036 
	C100.283798,76.054153 103.121857,72.999084 106.308426,70.127457 
	C107.453743,70.478340 108.297104,70.692238 109.140472,70.906136 
	C109.140472,70.906136 109.062996,70.940392 109.175888,71.145538 
	C109.591927,71.540741 109.895073,71.730789 110.198227,71.920845 
	C110.523575,71.961525 110.773338,72.120766 111.086807,72.848221 
	C111.384430,73.595306 111.617935,73.811562 111.926613,73.946648 
z"/>
<path fill="#5887E1" opacity="1.000000" stroke="none" 
	d="
M109.021461,70.592621 
	C108.297104,70.692238 107.453743,70.478340 106.149673,69.833046 
	C104.101212,67.911476 102.513451,66.421318 100.925690,64.931152 
	C101.135925,65.493393 101.346161,66.055634 101.556396,66.617867 
	C99.172699,68.328133 96.866432,70.161110 94.389702,71.723923 
	C88.695663,75.316872 85.431328,80.494881 84.011253,86.963211 
	C82.675911,86.037872 81.340576,85.112541 79.698067,84.160385 
	C78.729607,82.949425 78.068314,81.765274 77.531204,80.044937 
	C82.303474,75.649147 87.028381,71.875710 91.535530,67.857979 
	C92.448631,67.044029 92.539253,65.307411 92.998749,63.789551 
	C92.939758,63.309818 92.926552,63.034985 92.948822,62.758446 
	C100.784775,59.923717 104.526962,65.773117 109.021461,70.592621 
z"/>
<path fill="#5785F6" opacity="1.000000" stroke="none" 
	d="
M84.006874,86.982086 
	C85.431328,80.494881 88.695663,75.316872 94.389702,71.723923 
	C96.866432,70.161110 99.172699,68.328133 101.556396,66.617867 
	C101.346161,66.055634 101.135925,65.493393 100.925690,64.931152 
	C102.513451,66.421318 104.101212,67.911476 105.847717,69.696060 
	C103.121857,72.999084 100.283798,76.054153 97.340324,79.004036 
	C93.991745,82.359909 90.549011,85.621834 86.972122,89.287704 
	C86.797058,89.650826 86.624390,89.782364 86.624390,89.782364 
	C86.624390,89.782364 86.320572,89.563164 86.178711,89.317474 
	C86.036850,89.071793 85.685799,88.908264 85.685799,88.908264 
	C85.541191,88.770332 85.396584,88.632408 85.018005,88.015778 
	C84.591431,87.279526 84.343231,87.097916 84.039459,86.992264 
	C84.039459,86.992264 84.002495,87.000954 84.006874,86.982086 
z"/>
<path fill="#4E6CF9" opacity="1.000000" stroke="none" 
	d="
M92.472504,95.010262 
	C93.427673,94.529327 95.263466,93.787613 95.209541,93.605492 
	C93.765083,88.727737 97.897102,87.362778 100.459648,85.044746 
	C104.138031,81.717346 107.842941,78.419281 111.839417,74.916061 
	C112.142303,74.723427 112.131432,74.800095 112.254013,75.058060 
	C112.959297,75.513977 113.542007,75.711945 114.124710,75.909912 
	C114.124710,75.909912 114.053734,75.947136 114.163986,76.145844 
	C114.552269,76.551262 114.830292,76.757965 115.108315,76.964676 
	C115.108315,76.964676 115.032471,76.964462 115.072990,77.241058 
	C115.691895,78.006126 116.270271,78.494598 116.848656,78.983078 
	C116.848656,78.983078 117.085007,79.422127 116.795288,79.726151 
	C114.663940,81.362885 112.642731,82.507591 111.014023,84.063232 
	C105.940308,88.909325 101.015244,93.911049 96.032524,98.852409 
	C95.855141,98.773125 95.677757,98.693840 95.271790,98.344894 
	C95.043198,98.075226 94.810127,97.932358 94.810127,97.932358 
	C94.396774,97.549408 93.983421,97.166451 93.288574,96.410088 
	C93.007080,96.036674 92.840286,95.938393 92.840286,95.938393 
	C92.840286,95.938393 92.486900,95.699852 92.428207,95.446198 
	C92.369514,95.192535 92.472504,95.010262 92.472504,95.010262 
z"/>
<path fill="#4B60F5" opacity="1.000000" stroke="none" 
	d="
M96.148560,99.173401 
	C101.015244,93.911049 105.940308,88.909325 111.014023,84.063232 
	C112.642731,82.507591 114.663940,81.362885 116.863678,79.965897 
	C118.720428,80.853981 120.219078,81.806343 122.041946,82.899361 
	C122.321602,83.204704 122.277031,83.369392 121.748428,83.775513 
	C120.025780,84.435730 118.476944,84.518822 117.600098,85.329102 
	C112.766563,89.795738 108.013901,94.360031 103.457069,99.105522 
	C102.736336,99.856094 103.153587,101.699409 102.707787,103.048431 
	C101.487358,102.971077 100.603836,102.882782 99.720306,102.794487 
	C98.568405,101.694458 97.416504,100.594429 96.148560,99.173401 
z"/>
<path fill="#70B4F1" opacity="1.000000" stroke="none" 
	d="
M70.021278,72.948235 
	C66.940804,69.824409 63.860332,66.700577 60.724678,63.271618 
	C65.813286,62.813332 70.957077,62.660179 76.675659,62.900360 
	C77.139519,64.492271 77.482872,66.113121 76.833771,66.811455 
	C74.761139,69.041275 72.320076,70.928635 70.021278,72.948235 
z"/>
<path fill="#3936C3" opacity="1.000000" stroke="none" 
	d="
M99.720078,103.077881 
	C100.603836,102.882782 101.487358,102.971077 103.156837,103.061035 
	C106.970604,103.045044 109.998428,103.027405 113.491409,103.024719 
	C119.327263,102.815140 124.712234,102.248421 130.064240,102.471840 
	C134.532639,102.658379 135.480606,100.596985 135.073380,96.874977 
	C137.352570,99.032074 139.631775,101.189171 142.051971,103.663910 
	C139.951721,104.270462 137.714569,104.768944 135.468567,104.812584 
	C124.783691,105.020210 114.096413,105.104057 103.058472,105.497330 
	C102.086304,105.510536 101.465668,105.258377 100.577652,104.982529 
	C100.113480,104.426323 99.916664,103.893791 99.720078,103.077881 
z"/>
<path fill="#69A6F2" opacity="1.000000" stroke="none" 
	d="
M70.173553,73.236023 
	C72.320076,70.928635 74.761139,69.041275 76.833771,66.811455 
	C77.482872,66.113121 77.139519,64.492271 77.120407,63.043987 
	C82.010445,62.701256 87.030540,62.608231 92.499725,62.636826 
	C92.926552,63.034985 92.939758,63.309818 92.553970,63.789120 
	C87.275040,63.247879 83.423271,64.438019 80.883492,69.067810 
	C79.187874,72.158791 77.005196,74.982582 75.040489,77.925949 
	C73.468941,76.458572 71.897385,74.991196 70.173553,73.236023 
z"/>
<path fill="#5277F5" opacity="1.000000" stroke="none" 
	d="
M116.848740,78.685608 
	C116.270271,78.494598 115.691895,78.006126 115.088379,77.206398 
	C115.658440,77.392807 116.253624,77.890472 116.848740,78.685608 
z"/>
<path fill="#5277F5" opacity="1.000000" stroke="none" 
	d="
M113.985237,75.623138 
	C113.542007,75.711945 112.959297,75.513977 112.224518,75.033310 
	C112.663551,74.945854 113.254654,75.141106 113.985237,75.623138 
z"/>
<path fill="#3936C3" opacity="1.000000" stroke="none" 
	d="
M90.712944,94.029007 
	C90.759628,93.903603 91.050995,94.086594 91.078705,94.168991 
	C91.106415,94.251389 90.855385,94.341980 90.855385,94.341980 
	C90.855385,94.341980 90.666260,94.154404 90.712944,94.029007 
z"/>
<path fill="#5277F5" opacity="1.000000" stroke="none" 
	d="
M115.031021,76.699844 
	C114.830292,76.757965 114.552269,76.551262 114.161621,76.105850 
	C114.350571,76.056427 114.652145,76.245720 115.031021,76.699844 
z"/>
<path fill="#3936C3" opacity="1.000000" stroke="none" 
	d="
M94.726898,98.050819 
	C94.810127,97.932358 95.043198,98.075226 95.064285,98.140244 
	C95.085365,98.205269 94.848976,98.370872 94.848976,98.370872 
	C94.848976,98.370872 94.643669,98.169281 94.726898,98.050819 
z"/>
<path fill="#3936C3" opacity="1.000000" stroke="none" 
	d="
M92.764977,96.033218 
	C92.840286,95.938393 93.007080,96.036674 93.022484,96.081490 
	C93.037888,96.126305 92.689667,96.128044 92.764977,96.033218 
z"/>
<path fill="#3936C3" opacity="1.000000" stroke="none" 
	d="
M92.266953,94.936409 
	C92.472504,95.010262 92.369514,95.192535 92.303497,95.273293 
	C92.237473,95.354050 91.893105,95.373360 91.893105,95.373360 
	C91.893105,95.373360 91.636185,95.143646 91.632675,94.971420 
	C91.629166,94.799202 92.061394,94.862556 92.266953,94.936409 
z"/>
<path fill="#5887E1" opacity="1.000000" stroke="none" 
	d="
M111.917725,73.684586 
	C111.617935,73.811562 111.384430,73.595306 111.150620,73.067459 
	C111.353035,73.032188 111.630936,73.227348 111.917725,73.684586 
z"/>
<path fill="#3936C3" opacity="1.000000" stroke="none" 
	d="
M89.702469,93.036026 
	C89.746948,92.910210 90.042671,93.094810 90.070412,93.178474 
	C90.098152,93.262138 89.846581,93.348892 89.846581,93.348892 
	C89.846581,93.348892 89.657997,93.161850 89.702469,93.036026 
z"/>
<path fill="#3936C3" opacity="1.000000" stroke="none" 
	d="
M88.741631,92.051056 
	C88.799759,91.935822 89.060287,92.108589 89.080421,92.185196 
	C89.100555,92.261795 88.859795,92.353157 88.859795,92.353157 
	C88.859795,92.353157 88.683502,92.166290 88.741631,92.051056 
z"/>
<path fill="#3936C3" opacity="1.000000" stroke="none" 
	d="
M87.697052,91.034843 
	C87.741829,90.914307 88.019409,91.072205 88.044830,91.148727 
	C88.070259,91.225258 87.837372,91.331436 87.837372,91.331436 
	C87.837372,91.331436 87.652283,91.155380 87.697052,91.034843 
z"/>
<path fill="#3936C3" opacity="1.000000" stroke="none" 
	d="
M86.619446,89.953049 
	C86.624390,89.782364 86.797058,89.650826 86.895119,89.603127 
	C86.993179,89.555428 87.123260,89.958389 87.157516,90.166290 
	C86.930008,90.450134 86.737587,90.366638 86.619446,89.953049 
z"/>
<path fill="#5887E1" opacity="1.000000" stroke="none" 
	d="
M110.101196,71.657974 
	C109.895073,71.730789 109.591927,71.540741 109.169022,71.103745 
	C109.367569,71.036232 109.685867,71.215668 110.101196,71.657974 
z"/>
<path fill="#3936C3" opacity="1.000000" stroke="none" 
	d="
M85.659233,89.042572 
	C85.685799,88.908264 86.036850,89.071793 86.067291,89.166901 
	C86.097733,89.262009 85.840309,89.353844 85.840309,89.353844 
	C85.840309,89.353844 85.632668,89.176872 85.659233,89.042572 
z"/>
<path fill="#5887E1" opacity="1.000000" stroke="none" 
	d="
M84.108467,87.229408 
	C84.343231,87.097916 84.591431,87.279526 84.891838,87.743866 
	C84.639427,87.935585 84.365379,87.774223 84.108467,87.229408 
z"/>
<path fill="#4045FC" opacity="1.000000" stroke="none" 
	d="
M135.054138,96.914726 
	C135.480606,100.596985 134.532639,102.658379 130.064240,102.471840 
	C124.712234,102.248421 119.327263,102.815140 113.483505,102.642151 
	C115.889824,96.283516 120.174622,91.713837 126.227570,88.894730 
	C127.472672,90.025070 128.717773,91.155411 130.223053,92.835838 
	C131.033127,93.569748 131.583038,93.753578 132.132935,93.937401 
	C132.132935,93.937401 132.036087,93.962585 132.153412,94.153305 
	C132.553940,94.559616 132.837112,94.775200 133.120300,94.990776 
	C133.120300,94.990776 133.007492,94.994980 133.140198,95.173912 
	C133.561447,95.563248 133.849976,95.773651 134.138504,95.984062 
	C134.138504,95.984062 134.013443,95.986397 134.140320,96.163620 
	C134.549011,96.559349 134.830841,96.777855 135.112656,96.996361 
	C135.112656,96.996361 135.034897,96.954475 135.054138,96.914726 
z"/>
<path fill="#4655FB" opacity="1.000000" stroke="none" 
	d="
M126.103958,88.590240 
	C120.174622,91.713837 115.889824,96.283516 113.018349,102.627197 
	C109.998428,103.027405 106.970604,103.045044 103.493736,103.050087 
	C103.153587,101.699409 102.736336,99.856094 103.457069,99.105522 
	C108.013901,94.360031 112.766563,89.795738 117.600098,85.329102 
	C118.476944,84.518822 120.025780,84.435730 121.636948,84.005875 
	C123.333115,85.425125 124.656738,86.855431 126.103958,88.590240 
z"/>
<path fill="#3936C3" opacity="1.000000" stroke="none" 
	d="
M132.000870,93.662018 
	C131.583038,93.753578 131.033127,93.569748 130.333588,93.135651 
	C130.745560,93.052460 131.307190,93.219551 132.000870,93.662018 
z"/>
<path fill="#3936C3" opacity="1.000000" stroke="none" 
	d="
M135.029846,96.723877 
	C134.830841,96.777855 134.549011,96.559349 134.140854,96.101082 
	C134.325363,96.058014 134.636200,96.254700 135.029846,96.723877 
z"/>
<path fill="#3936C3" opacity="1.000000" stroke="none" 
	d="
M134.049423,95.714981 
	C133.849976,95.773651 133.561447,95.563248 133.138885,95.117477 
	C133.323349,95.070045 133.641846,95.257973 134.049423,95.714981 
z"/>
<path fill="#3936C3" opacity="1.000000" stroke="none" 
	d="
M133.037811,94.718750 
	C132.837112,94.775200 132.553940,94.559616 132.145264,94.103943 
	C132.331635,94.058144 132.643463,94.252434 133.037811,94.718750 
z"/>
<path fill="#5F9CF7" opacity="1.000000" stroke="none" 
	d="
M75.154541,78.206955 
	C77.005196,74.982582 79.187874,72.158791 80.883492,69.067810 
	C83.423271,64.438019 87.275040,63.247879 92.564270,63.995728 
	C92.539253,65.307411 92.448631,67.044029 91.535530,67.857979 
	C87.028381,71.875710 82.303474,75.649147 77.404617,79.714172 
	C76.525436,79.442383 75.897018,78.965172 75.154541,78.206955 
z"/>
</svg>